<svg id="svg" version="1.1" xmlns="http://www.w3.org/2000/svg" xmlns:xlink="http://www.w3.org/1999/xlink" width="400" height="69.31818181818181" viewBox="0, 0, 400,69.31818181818181"><g id="svgg"><path id="path0" d="M113.928 3.693 C 112.620 5.099,109.294 10.085,106.536 14.773 C 101.884 22.682,101.202 23.341,97.068 23.926 C 89.890 24.942,81.923 31.366,78.265 39.089 C 77.407 40.900,75.560 43.131,74.162 44.047 C 69.362 47.192,69.749 42.719,74.969 34.707 C 82.049 23.840,78.874 18.398,69.999 26.190 C 65.742 29.928,64.945 29.923,67.287 26.173 C 68.044 24.960,68.338 23.641,67.940 23.243 C 66.488 21.791,62.939 23.952,60.860 27.555 C 55.427 36.970,50.932 42.910,48.351 44.086 C 43.650 46.228,43.951 43.762,49.572 34.087 C 53.667 27.040,54.595 24.595,53.567 23.567 C 51.565 21.565,46.193 25.235,45.339 29.188 C 44.958 30.947,43.295 34.892,41.642 37.953 C 36.965 46.616,39.861 51.776,47.838 48.995 C 49.796 48.313,51.757 47.976,52.196 48.248 C 52.635 48.519,57.237 44.140,62.423 38.517 C 72.270 27.840,75.011 26.143,69.874 33.905 C 63.162 44.048,65.596 52.060,74.286 48.429 C 76.956 47.314,78.537 47.173,79.343 47.979 C 81.112 49.748,85.846 48.113,90.314 44.189 L 94.306 40.684 93.623 44.101 C 92.705 48.690,96.214 50.862,100.874 48.590 C 103.493 47.314,104.433 47.335,106.901 48.728 C 110.803 50.931,118.192 47.606,119.808 42.920 C 121.420 38.244,119.861 37.924,115.240 41.982 C 108.537 47.867,108.115 44.768,114.186 34.243 C 119.107 25.711,119.802 22.727,116.870 22.727 C 114.350 22.727,108.956 27.556,109.600 29.234 C 110.729 32.176,102.384 44.318,99.234 44.318 C 96.084 44.318,101.378 32.633,113.154 13.596 C 116.544 8.116,119.318 3.070,119.318 2.384 C 119.318 0.291,116.442 0.990,113.928 3.693 M324.065 4.261 C 322.787 5.355,317.534 13.920,312.391 23.295 C 302.363 41.573,300.500 44.318,298.119 44.318 C 295.661 44.318,296.342 40.201,300.000 32.955 C 304.149 24.735,304.144 24.908,300.252 25.204 C 298.515 25.337,296.459 25.053,295.684 24.574 C 291.988 22.289,276.136 33.893,276.136 38.883 C 276.136 40.865,272.637 42.935,267.234 44.149 C 257.633 46.306,255.941 39.557,264.179 31.963 C 268.673 27.821,275.689 24.765,271.818 28.636 C 269.991 30.463,270.086 32.955,271.983 32.955 C 274.235 32.955,277.273 29.163,277.273 26.353 C 277.273 20.639,266.246 22.426,259.660 29.207 C 247.211 42.026,256.058 55.073,271.761 47.052 C 274.333 45.738,274.974 45.758,276.161 47.189 C 278.520 50.032,283.656 49.174,288.246 45.170 C 291.003 42.765,292.215 42.180,291.720 43.492 C 290.771 46.009,294.913 50.451,297.340 49.520 C 298.280 49.159,300.276 48.864,301.774 48.864 C 303.823 48.864,305.093 47.700,306.891 44.175 L 309.283 39.487 311.405 42.977 C 314.984 48.862,318.526 50.561,322.784 48.437 C 326.012 46.827,326.586 46.833,329.132 48.502 C 331.536 50.077,332.788 50.145,337.979 48.983 C 341.305 48.239,344.560 47.780,345.213 47.963 C 345.865 48.146,350.772 43.693,356.116 38.068 C 365.118 28.592,365.782 28.112,365.160 31.534 C 364.230 36.647,367.214 36.494,370.447 31.262 C 375.265 23.466,369.266 20.222,362.327 26.871 C 358.915 30.139,358.167 29.858,360.468 26.173 C 361.226 24.960,361.520 23.641,361.122 23.243 C 359.319 21.440,355.808 24.456,351.866 31.193 C 347.053 39.422,338.989 45.790,334.105 45.220 C 329.744 44.710,330.690 41.955,336.364 38.636 C 341.873 35.414,342.238 33.348,337.216 33.811 C 333.237 34.178,333.289 33.681,337.540 30.653 C 340.065 28.855,341.380 28.521,342.447 29.407 C 343.500 30.281,344.594 30.134,346.384 28.880 C 351.802 25.086,348.104 21.926,340.608 23.945 C 334.795 25.510,329.256 30.850,329.726 34.436 C 330.141 37.602,323.797 44.318,320.391 44.318 C 315.969 44.318,314.905 38.764,318.795 35.987 C 326.587 30.425,330.490 24.148,327.360 22.213 C 326.783 21.856,323.433 24.442,319.916 27.960 C 310.996 36.879,311.073 35.241,320.344 18.867 C 329.729 2.290,330.667 -1.390,324.065 4.261 M20.388 4.431 C 12.557 6.957,6.818 11.654,6.818 15.539 C 6.818 18.880,11.925 19.368,12.777 16.109 C 13.626 12.863,23.361 8.884,30.875 8.711 C 43.245 8.427,42.646 14.060,29.578 20.927 C 19.680 26.128,19.213 25.848,24.361 17.801 C 30.778 7.770,24.941 7.789,18.039 17.822 C 10.744 28.424,2.273 43.698,2.273 46.248 C 2.273 49.585,6.349 49.858,7.386 46.591 C 8.100 44.343,10.227 43.389,10.227 45.317 C 10.227 49.189,23.778 49.593,30.858 45.932 C 41.863 40.241,42.944 27.311,32.418 27.262 C 30.897 27.255,32.114 26.104,35.999 23.876 C 54.524 13.251,41.879 -2.499,20.388 4.431 M137.933 4.279 C 135.738 5.720,130.495 17.192,131.196 19.020 C 132.154 21.515,135.156 18.602,139.107 11.342 C 142.586 4.949,142.028 1.590,137.933 4.279 M198.730 4.978 C 184.311 10.130,170.455 26.767,170.455 38.926 C 170.455 51.103,188.096 51.294,198.687 39.232 C 205.444 31.536,203.386 28.509,195.885 35.111 C 181.872 47.445,171.257 44.701,178.449 30.604 C 183.679 20.352,198.592 8.340,204.842 9.345 C 207.757 9.814,199.308 19.318,195.975 19.318 C 194.066 19.318,193.735 22.233,195.519 23.335 C 199.027 25.503,211.231 16.339,212.794 10.363 C 214.301 4.599,207.297 1.917,198.730 4.978 M55.178 14.701 C 53.076 17.024,53.610 19.318,56.253 19.318 C 58.123 19.318,61.523 14.813,60.681 13.451 C 59.687 11.842,57.269 12.391,55.178 14.701 M119.951 14.701 C 117.849 17.024,118.383 19.318,121.025 19.318 C 122.895 19.318,126.296 14.813,125.454 13.451 C 124.459 11.842,122.041 12.391,119.951 14.701 M238.697 23.580 C 229.296 38.515,224.972 44.318,223.247 44.318 C 220.671 44.318,221.246 41.644,225.798 32.445 C 228.111 27.769,229.689 23.629,229.304 23.243 C 228.154 22.094,224.012 24.856,222.465 27.804 C 220.649 31.264,209.235 43.182,207.738 43.182 C 207.123 43.182,208.733 39.266,211.314 34.481 C 216.077 25.650,216.245 21.151,211.656 25.303 C 209.595 27.169,203.002 39.532,201.788 43.810 C 199.848 50.644,206.178 51.334,213.360 45.070 C 216.030 42.742,217.216 42.177,216.730 43.466 C 215.656 46.315,216.936 48.864,219.440 48.864 C 222.429 48.864,222.183 49.979,217.439 57.942 C 213.776 64.093,213.485 65.109,214.969 66.592 C 216.452 68.075,217.434 67.004,223.333 57.469 C 229.444 47.592,230.180 46.813,231.912 48.380 C 236.501 52.533,249.918 41.828,253.419 31.219 C 256.073 23.179,251.447 21.416,243.259 27.347 L 238.451 30.831 243.144 23.919 C 247.476 17.540,248.143 14.773,245.349 14.773 C 244.739 14.773,241.746 18.736,238.697 23.580 M141.280 24.322 C 130.982 29.166,128.932 35.819,136.947 38.379 C 145.326 41.055,145.120 40.899,142.681 42.695 C 139.697 44.891,134.508 44.771,133.631 42.486 C 132.701 40.063,129.545 42.483,129.545 45.618 C 129.545 51.045,141.399 50.734,147.443 45.148 C 152.614 40.370,150.363 36.251,141.691 34.624 C 136.699 33.688,136.767 32.137,141.931 29.122 C 145.017 27.319,146.033 27.198,148.232 28.375 C 151.805 30.287,155.965 28.139,155.467 24.639 C 154.947 20.991,148.659 20.851,141.280 24.322 M376.147 27.501 C 364.736 46.122,364.986 56.728,376.594 46.535 C 381.679 42.071,381.855 43.584,376.989 49.927 C 369.279 59.975,368.182 61.774,368.182 64.373 C 368.182 68.953,373.272 67.937,376.581 62.695 C 378.092 60.303,383.212 54.766,387.959 50.392 C 392.707 46.017,396.591 41.583,396.591 40.537 C 396.591 37.571,395.401 38.199,388.956 44.563 C 381.402 52.023,381.441 50.942,389.205 37.500 C 398.094 22.110,396.774 17.892,387.030 30.554 C 376.814 43.830,370.303 47.167,376.607 35.895 C 378.848 31.887,380.682 27.826,380.682 26.871 C 380.682 23.487,378.413 23.802,376.147 27.501 M96.715 30.398 C 96.114 31.491,92.772 35.181,89.288 38.598 C 82.695 45.063,80.788 44.460,85.538 37.411 C 89.405 31.674,99.491 25.345,96.715 30.398 M293.270 32.843 C 288.491 38.877,281.452 44.924,280.952 43.425 C 279.983 40.516,285.900 32.820,291.477 29.735 C 296.070 27.195,296.775 28.418,293.270 32.843 M248.864 30.511 C 248.864 34.178,238.460 44.318,234.699 44.318 C 231.861 44.318,232.607 43.031,239.453 36.112 C 245.401 30.102,248.864 28.041,248.864 30.511 M31.893 31.858 C 35.078 33.563,34.602 35.859,30.398 39.058 C 24.142 43.818,13.555 44.586,15.254 40.156 C 15.778 38.793,15.393 38.506,13.653 38.961 C 10.826 39.701,10.827 39.677,13.749 34.724 C 16.301 30.398,26.233 28.829,31.893 31.858 " stroke="none" fill="#000000" fill-rule="evenodd"></path></g></svg>